<?xml version="1.0" encoding="utf-8"?><!-- Uploaded to: SVG Repo, www.svgrepo.com, Generator: SVG Repo Mixer Tools -->
<svg width="800px" height="800px" viewBox="0 0 400 400" fill="none" xmlns="http://www.w3.org/2000/svg">
<path d="M175.324 328.028C163.645 257.877 161.225 185.318 179.64 115.994C182.908 103.699 196.103 82.5025 212.469 89.5426C242.231 102.348 217.651 296.862 217.651 337.133" stroke="#000000" stroke-opacity="0.9" stroke-width="16" stroke-linecap="round" stroke-linejoin="round"/>
<path d="M230.615 207.449C240.474 206.873 252.789 212.791 254.162 200.558C254.994 193.193 254.355 185.153 253.729 177.737C252.394 161.914 267.54 127.609 288.18 145.44C303.728 158.874 298.968 199.626 297.773 217.353C297.423 222.506 297.57 244.595 291.667 247.929C275.267 257.181 245.88 253.478 228.435 249.651" stroke="#000000" stroke-opacity="0.9" stroke-width="16" stroke-linecap="round" stroke-linejoin="round"/>
<path d="M154.705 218.863C135.453 217.545 119.174 206.301 112.673 187.53C107.11 171.469 96.3103 82.4142 129.14 78.2917C158.483 74.6087 127.869 167.075 161.206 167.075" stroke="#000000" stroke-opacity="0.9" stroke-width="16" stroke-linecap="round" stroke-linejoin="round"/>
<path d="M98.9596 108.898C95.564 108.054 92.1391 108.696 89 108.898" stroke="#000000" stroke-opacity="0.9" stroke-width="3" stroke-linecap="round" stroke-linejoin="round"/>
<path d="M96.4697 136.397C93.9502 136.148 91.1478 136.791 89 137.052" stroke="#000000" stroke-opacity="0.9" stroke-width="3" stroke-linecap="round" stroke-linejoin="round"/>
<path d="M100.205 170.604C98.1348 170.865 96.0433 170.951 93.9802 171.261" stroke="#000000" stroke-opacity="0.9" stroke-width="3" stroke-linecap="round" stroke-linejoin="round"/>
<path d="M110.165 78.1845C106.54 76.9176 105.595 73.8065 103.94 70.7148" stroke="#000000" stroke-opacity="0.9" stroke-width="3" stroke-linecap="round" stroke-linejoin="round"/>
<path d="M129.806 69.4697C130.721 66.9545 129.201 63.9155 128.824 62" stroke="#000000" stroke-opacity="0.9" stroke-width="3" stroke-linecap="round" stroke-linejoin="round"/>
<path d="M208.995 76.9394C208.827 74.4255 209.175 71.9574 209.324 69.4697" stroke="#000000" stroke-opacity="0.9" stroke-width="3" stroke-linecap="round" stroke-linejoin="round"/>
<path d="M184.861 86.8992C183.518 84.0951 182.338 81.1171 181.126 78.1846" stroke="#000000" stroke-opacity="0.9" stroke-width="3" stroke-linecap="round" stroke-linejoin="round"/>
<path d="M230.922 106.883C233.269 104.991 235.855 104.816 238.392 104.264" stroke="#000000" stroke-opacity="0.9" stroke-width="3" stroke-linecap="round" stroke-linejoin="round"/>
<path d="M235.903 130.101C237.101 129.105 238.417 128.916 239.637 128.353" stroke="#000000" stroke-opacity="0.9" stroke-width="3" stroke-linecap="round" stroke-linejoin="round"/>
<path d="M283.211 135.452C284.101 131.891 285.65 128.758 286.946 125.492" stroke="#000000" stroke-opacity="0.9" stroke-width="3" stroke-linecap="round" stroke-linejoin="round"/>
<path d="M227.188 279.492C231.346 279.089 235.481 278.207 239.638 277.749" stroke="#000000" stroke-opacity="0.9" stroke-width="3" stroke-linecap="round" stroke-linejoin="round"/>
<path d="M230.922 299.333C232.993 298.747 235.071 299.117 237.147 299.005" stroke="#000000" stroke-opacity="0.9" stroke-width="3" stroke-linecap="round" stroke-linejoin="round"/>
<path d="M225.942 315.121C229.616 315.887 235.877 315.446 238.392 315.446" stroke="#000000" stroke-opacity="0.9" stroke-width="3" stroke-linecap="round" stroke-linejoin="round"/>
<path d="M166.185 318.426C162.882 318.941 159.503 319.259 156.225 319.737" stroke="#000000" stroke-opacity="0.9" stroke-width="3" stroke-linecap="round" stroke-linejoin="round"/>
<path d="M161.208 290.742C157.517 291.31 153.747 291.273 150.003 291.397" stroke="#000000" stroke-opacity="0.9" stroke-width="3" stroke-linecap="round" stroke-linejoin="round"/>
<path d="M157.474 263.014C155.432 262.943 153.128 263.09 151.249 263.123" stroke="#000000" stroke-opacity="0.9" stroke-width="3" stroke-linecap="round" stroke-linejoin="round"/>
<path d="M132.575 218.863C132.307 223.53 129.425 222.801 127.595 225.088" stroke="#000000" stroke-opacity="0.9" stroke-width="3" stroke-linecap="round" stroke-linejoin="round"/>
<path d="M108.952 200.214C113.432 197.835 104.159 201.675 102.694 202.179" stroke="#000000" stroke-opacity="0.9" stroke-width="3" stroke-linecap="round" stroke-linejoin="round"/>
<path d="M311.614 170.793C310.509 170.602 309.418 171.013 308.343 171.122" stroke="#000000" stroke-opacity="0.9" stroke-width="3" stroke-linecap="round" stroke-linejoin="round"/>
<path d="M311.843 193.833C309.343 193.825 306.825 193.28 304.374 192.851" stroke="#000000" stroke-opacity="0.9" stroke-width="3" stroke-linecap="round" stroke-linejoin="round"/>
<path d="M305.621 214.506C304.375 214.506 303.129 214.506 301.886 214.506" stroke="#000000" stroke-opacity="0.9" stroke-width="3" stroke-linecap="round" stroke-linejoin="round"/>
</svg>